<svg xmlns="http://www.w3.org/2000/svg" xmlns:xlink="http://www.w3.org/1999/xlink" preserveAspectRatio="xMidYMid" width="32" height="32" viewBox="-1 -1 32 32">
  <defs>
    <style>
      .cls-1 {
        fill: #d14841;
      }

      .cls-2 {
        fill: #fff;
        fill-rule: evenodd;
      }
    </style>
  </defs>
  <circle cx="15" cy="15" r="15" class="cls-1"/>
  <path d="M17.000,15.000 L19.000,17.000 C19.677,17.677 20.151,18.798 19.475,19.475 C18.798,20.151 17.677,19.677 17.000,19.000 L15.000,17.000 L13.000,19.000 C12.323,19.677 11.166,20.151 10.489,19.475 C9.812,18.798 10.323,17.677 11.000,17.000 L13.000,15.000 L11.000,13.000 C10.323,12.323 9.812,11.166 10.489,10.489 C11.166,9.812 12.323,10.323 13.000,11.000 L15.000,13.000 L17.000,11.000 C17.677,10.323 18.798,9.812 19.475,10.489 C20.151,11.166 19.677,12.323 19.000,13.000 L17.000,15.000 Z" class="cls-2"/>
</svg>
